<?xml version="1.0" encoding="UTF-8"?>
<!-- Generator: Adobe Illustrator 20.1.0, SVG Export Plug-In . SVG Version: 6.00 Build 0)  -->
<svg version="1.1" id="Layer_1" xmlns="http://www.w3.org/2000/svg" xmlns:xlink="http://www.w3.org/1999/xlink" x="0px" y="0px" viewBox="0 0 442 127" style="enable-background:new 0 0 442 127;" xml:space="preserve">
<style type="text/css">
	.st0{fill:#203D94;}
</style>
<g id="Слой_x0020_1">
	<g id="_2103239150672">
		<g>
			<path class="st0" d="M149.6,81.8c-0.8-0.4-1-0.6-1-1.7c0-2.8,0.2-5.8,0.3-6.6c0.1-0.8,0.2-1.3,0.6-1.3c0.5,0,0.5,0.5,0.5,0.9     c0,0.7,0.2,1.7,0.5,2.6c1.1,3.7,4.1,5.1,7.2,5.1c4.5,0,6.7-3.1,6.7-5.7c0-2.5-0.8-4.8-4.9-8.1l-2.3-1.8     c-5.5-4.3-7.4-7.9-7.4-11.9c0-5.5,4.6-9.5,11.6-9.5c3.3,0,5.4,0.5,6.7,0.9c0.5,0.1,0.7,0.3,0.7,0.6c0,0.7-0.2,2.1-0.2,6     c0,1.1-0.1,1.5-0.6,1.5c-0.4,0-0.5-0.3-0.5-0.9c0-0.5-0.3-2-1.3-3.3c-0.8-1-2.2-2.5-5.5-2.5c-3.7,0-6,2.2-6,5.2     c0,2.3,1.2,4.1,5.3,7.2l1.4,1.1c6.1,4.6,8.3,8,8.3,12.8c0,2.9-1.1,6.4-4.7,8.8c-2.5,1.6-5.3,2.1-8,2.1     C154,83.1,151.7,82.7,149.6,81.8z"/>
			<path class="st0" d="M175.9,66.2c0-7.3,5.1-16.8,18.6-16.8c11.2,0,18.1,6.2,18.1,16c0,9.8-7.1,17.5-18.6,17.5     C181.1,82.9,175.9,73.8,175.9,66.2z M206,67L206,67c0-9.5-5.7-15.3-12.8-15.3c-4.9,0-10.7,2.6-10.7,13.2c0,8.8,5,15.8,13.4,15.8     C199,80.6,206,79.1,206,67L206,67z"/>
			<path class="st0" d="M223.7,76.5c0.1,3.3,0.7,4.3,1.5,4.6c0.8,0.3,1.6,0.3,2.3,0.3c0.5,0,0.8,0.2,0.8,0.5c0,0.4-0.4,0.5-1,0.5     c-2.9,0-4.9-0.1-5.7-0.1c-0.4,0-2.5,0.1-4.8,0.1c-0.6,0-1,0-1-0.5c0-0.3,0.3-0.5,0.7-0.5c0.6,0,1.4-0.1,2-0.2     c1.2-0.3,1.3-1.5,1.4-5.2l0.4-25.4c0-0.9,0.3-1.5,0.8-1.5c0.6,0,1.2,0.7,1.9,1.4c0.6,0.6,7.2,7.3,13.6,13.6c3,3,8.9,9,9.6,9.6     h0.2l-0.5-19c0-2.6-0.5-3.4-1.5-3.8c-0.7-0.3-1.7-0.3-2.3-0.3c-0.6,0-0.7-0.2-0.7-0.5c0-0.4,0.5-0.4,1.1-0.4     c2.3,0,4.7,0.1,5.6,0.1c0.5,0,2.2-0.1,4.3-0.1c0.6,0,1,0.1,1,0.4c0,0.3-0.3,0.5-0.8,0.5c-0.5,0-0.8,0-1.4,0.2     c-1.2,0.3-1.6,1.1-1.6,3.5l-0.5,27c0,1-0.4,1.4-0.7,1.4c-0.8,0-1.4-0.5-1.8-0.9c-2.8-2.6-8.3-7.8-12.9-12.3     c-4.8-4.6-9.5-9.8-10.4-10.6h-0.2L223.7,76.5L223.7,76.5z"/>
			<path class="st0" d="M258.1,66.2c0-7.3,5.1-16.8,18.6-16.8c11.2,0,18.1,6.2,18.1,16c0,9.8-7.1,17.5-18.6,17.5     C263.3,82.9,258.1,73.8,258.1,66.2L258.1,66.2z M288.2,67L288.2,67c0-9.5-5.7-15.3-12.8-15.3c-4.9,0-10.7,2.6-10.7,13.2     c0,8.8,5,15.8,13.4,15.8C281.1,80.6,288.2,79.1,288.2,67z"/>
			<path class="st0" d="M308,77.6c-4.9-4.3-6.2-10-6.2-14.8c0-3.4,1.1-9.4,5.9-13.8c3.6-3.3,8.4-5.3,15.9-5.3c3.1,0,5,0.2,7.3,0.5     c1.9,0.3,3.5,0.7,5,0.9c0.6,0.1,0.8,0.3,0.8,0.6c0,0.4-0.2,1-0.3,2.8c-0.1,1.7-0.1,4.4-0.2,5.4c-0.1,0.8-0.2,1.2-0.6,1.2     c-0.4,0-0.5-0.4-0.5-1.1c0-1.6-0.7-3.3-2-4.6c-1.7-1.8-5.6-3.1-10.2-3.1c-4.4,0-7.2,1.1-9.5,3.1c-3.7,3.4-4.6,8.2-4.6,13     c0,12,9.1,17.9,15.8,17.9c4.5,0,7.2-0.5,9.2-2.8c0.9-1,1.5-2.4,1.7-3.3c0.2-0.8,0.2-1,0.7-1c0.4,0,0.5,0.4,0.5,0.8     c0,0.6-0.6,5-1.1,6.7c-0.3,0.9-0.5,1.1-1.3,1.5c-2,0.8-5.8,1.2-9.1,1.2C318.3,83.1,312.5,81.6,308,77.6L308,77.6z"/>
			<path class="st0" d="M343.3,66.2c0-7.3,5.1-16.8,18.6-16.8c11.2,0,18.1,6.2,18.1,16c0,9.8-7.1,17.5-18.6,17.5     C348.5,82.9,343.3,73.8,343.3,66.2L343.3,66.2z M373.4,67L373.4,67c0-9.5-5.7-15.3-12.8-15.3c-4.9,0-10.7,2.6-10.7,13.2     c0,8.8,5,15.8,13.4,15.8C366.3,80.6,373.4,79.1,373.4,67z"/>
			<path class="st0" d="M388.4,62.4c0-6.5,0-7.7,0-9.1c-0.1-1.5-0.6-2-1.5-2.3c-0.5-0.1-1.1-0.2-1.6-0.2c-0.5,0-0.7-0.1-0.7-0.5     c0-0.3,0.4-0.4,1.1-0.4c1.7,0,4.7,0.1,5.9,0.1c1.1,0,4-0.1,5.7-0.1c0.6,0,0.9,0.1,0.9,0.4c0,0.4-0.3,0.5-0.7,0.5     c-0.5,0-0.8,0.1-1.3,0.2c-1.2,0.2-1.6,0.8-1.7,2.3c-0.1,1.4-0.1,2.6-0.1,9.1v7.5c0,4.1,0,7.5,0.2,9.4c0.2,1.2,0.5,1.8,1.8,2     c0.6,0.1,1.6,0.2,2.3,0.2c0.5,0,0.7,0.3,0.7,0.5c0,0.3-0.4,0.5-0.9,0.5c-2.9,0-5.9-0.1-7.1-0.1c-1,0-4,0.1-5.8,0.1     c-0.6,0-0.9-0.1-0.9-0.5c0-0.2,0.2-0.5,0.7-0.5c0.7,0,1.2-0.1,1.6-0.2c0.9-0.2,1.2-0.8,1.3-2.1c0.2-1.8,0.2-5.2,0.2-9.3     L388.4,62.4L388.4,62.4z"/>
			<path class="st0" d="M411.9,76.5c0.1,3.3,0.7,4.3,1.5,4.6c0.8,0.3,1.6,0.3,2.3,0.3c0.5,0,0.8,0.2,0.8,0.5c0,0.4-0.4,0.5-1,0.5     c-2.9,0-4.9-0.1-5.7-0.1c-0.4,0-2.5,0.1-4.8,0.1c-0.6,0-1,0-1-0.5c0-0.3,0.3-0.5,0.7-0.5c0.6,0,1.4-0.1,2-0.2     c1.2-0.3,1.3-1.5,1.4-5.2l0.4-25.4c0-0.9,0.3-1.5,0.8-1.5c0.6,0,1.2,0.7,1.9,1.4c0.6,0.6,7.2,7.3,13.6,13.6c3,3,8.9,9,9.6,9.6     h0.2l-0.5-19c0-2.6-0.5-3.4-1.5-3.8c-0.7-0.3-1.7-0.3-2.3-0.3c-0.6,0-0.7-0.2-0.7-0.5c0-0.4,0.5-0.4,1.1-0.4     c2.3,0,4.7,0.1,5.6,0.1c0.5,0,2.2-0.1,4.3-0.1c0.6,0,1,0.1,1,0.4c0,0.3-0.3,0.5-0.8,0.5c-0.5,0-0.8,0-1.4,0.2     c-1.2,0.3-1.6,1.1-1.6,3.5l-0.5,27c0,1-0.4,1.4-0.7,1.4c-0.8,0-1.4-0.5-1.8-0.9c-2.8-2.6-8.3-7.8-12.9-12.3     c-4.8-4.6-9.5-9.8-10.4-10.6h-0.2L411.9,76.5z"/>
		</g>
		<g>
			<path class="st0" d="M63.9,127c-35,0-63.5-28.5-63.5-63.5C0.4,28.5,28.9,0,63.9,0c35,0,63.5,28.5,63.5,63.5     C127.4,98.5,98.9,127,63.9,127z M63.9,2.4L63.9,2.4C30.2,2.4,2.8,29.8,2.8,63.5c0,33.7,27.4,61.1,61.1,61.1     c33.7,0,61.1-27.4,61.1-61.1C125,29.8,97.6,2.4,63.9,2.4z"/>
			<path class="st0" d="M64.3,33.1C64.9,33,65.4,33,66,33c5.8,0,8.4,2.5,9.7,4c1.9,2.1,2.3,4.6,2.3,5.3c0,1,0.7,1.3,1.3,1.3     c0.7,0,0.8-0.5,0.9-2.3c0-6.3,0.1-8.6,0.2-9.6c0-0.6-0.4-0.8-1.2-1c-2.3-0.6-6.1-1.4-11.9-1.5c-1,0-1.9,0.1-2.9,0.2     C64.3,29.5,64.3,33.1,64.3,33.1z"/>
			<path class="st0" d="M67.5,57.1l-2.6-1.8c-0.2-0.1-0.4-0.3-0.6-0.4V70c7.4,5.5,8.7,9.8,8.7,14c0,3.9-2.9,8.3-8.7,9.6v4.1     c3.3-0.5,6.7-1.3,9.8-3.1c6.8-4.1,9.5-10,9.5-15.1C83.6,71.2,78.9,65.2,67.5,57.1z"/>
			<g>
				<path class="st0" d="M63.9,6.9C32.7,6.9,7.3,32.3,7.3,63.5s25.4,56.6,56.6,56.6c31.2,0,56.6-25.4,56.6-56.6S95.1,6.9,63.9,6.9z       M64.1,117.7L64.1,117.7V98.3c-1.7,0.2-3.5,0.3-5.2,0.3c-5.4,0-9.6-0.7-13.7-2.4c-1.5-0.6-1.8-1.5-1.8-3.4      c0-4.8,0.1-10.1,0.2-11.5c0.1-1.3,0.6-2.3,1.3-2.3c0.8,0,1.5,0.8,1.5,1.5c0,1.1,0.4,2.8,0.8,4.3c2.1,6.5,6.9,8.6,12.7,8.6      c1.4,0,2.9-0.1,4.1-0.2V70.2c-0.2-0.1-0.3-0.2-0.5-0.4l-4.3-3.2C48.9,59.1,44.9,53,44.9,45.9c0-8.9,7.8-15.7,19.2-16.7V9.3      c29.8,0.1,54,24.4,54,54.2C118.1,93.3,93.9,117.6,64.1,117.7L64.1,117.7z"/>
				<path class="st0" d="M54.7,42.3c0,3.9,2.1,7,9.4,12.3V33.3C58.2,33.9,54.7,37.5,54.7,42.3z"/>
			</g>
		</g>
	</g>
</g>
</svg>